<svg width="32" height="32" viewBox="0 0 32 32" fill="none" xmlns="http://www.w3.org/2000/svg">
<path d="M19.3841 6.57222C19.1894 6.57789 19.0044 6.65915 18.8685 6.79878L10.6185 15.0488C10.5486 15.1185 10.4931 15.2013 10.4553 15.2924C10.4174 15.3836 10.3979 15.4813 10.3979 15.58C10.3979 15.6787 10.4174 15.7765 10.4553 15.8676C10.4931 15.9588 10.5486 16.0416 10.6185 16.1113L18.8685 24.3613C18.9383 24.4311 19.0211 24.4864 19.1123 24.5242C19.2034 24.5619 19.3011 24.5814 19.3998 24.5814C19.4984 24.5814 19.5962 24.562 19.6873 24.5242C19.7785 24.4865 19.8613 24.4311 19.9311 24.3613C20.0008 24.2916 20.0562 24.2087 20.0939 24.1176C20.1317 24.0264 20.1511 23.9287 20.1511 23.83C20.1511 23.7314 20.1317 23.6337 20.0939 23.5425C20.0561 23.4514 20.0008 23.3685 19.931 23.2988L12.2123 15.58L19.931 7.86128C20.0401 7.75591 20.1146 7.61997 20.1448 7.47137C20.1751 7.32278 20.1596 7.16851 20.1003 7.02891C20.0411 6.88931 19.941 6.77095 19.8131 6.68942C19.6853 6.60789 19.5357 6.56702 19.3841 6.57222Z" fill="black"/>
</svg>
