<svg width="108" height="30" viewBox="0 0 108 30" fill="none" xmlns="http://www.w3.org/2000/svg">
<path d="M51.784 23H47.128L42.904 16.64H42.184V23H38.464V6.2H45.184C48.952 6.2 50.896 8.528 50.896 11.456C50.896 13.928 49.576 15.848 46.984 16.448L51.784 23ZM44.632 9.584H42.184V13.52H44.632C46.12 13.52 46.96 12.944 46.96 11.552C46.96 10.304 46.12 9.584 44.632 9.584ZM57.6569 11.576C60.9929 11.576 63.1529 13.496 63.1529 17.504V18.32H55.2089C55.4489 19.712 56.5529 20.336 58.0409 20.336C59.3849 20.336 60.5609 19.784 61.2569 19.328L62.5769 22.064C61.4009 22.784 59.8889 23.36 57.9929 23.36C54.2729 23.36 51.8009 21.032 51.8009 17.504C51.8009 13.76 54.2489 11.576 57.6569 11.576ZM57.5369 14.144C56.3129 14.144 55.4009 14.744 55.2329 16.184H59.6489C59.6009 14.888 58.7129 14.144 57.5369 14.144ZM69.9147 11.576C73.2507 11.576 75.4107 13.496 75.4107 17.504V18.32H67.4667C67.7067 19.712 68.8107 20.336 70.2987 20.336C71.6427 20.336 72.8187 19.784 73.5147 19.328L74.8347 22.064C73.6587 22.784 72.1467 23.36 70.2507 23.36C66.5307 23.36 64.0587 21.032 64.0587 17.504C64.0587 13.76 66.5067 11.576 69.9147 11.576ZM69.7947 14.144C68.5707 14.144 67.6587 14.744 67.4907 16.184H71.9067C71.8587 14.888 70.9707 14.144 69.7947 14.144ZM81.5202 18.92L83.9442 11.912H87.9522L83.3442 23H79.7202L75.1122 11.912H79.1202L81.5202 18.92ZM89.0543 6.224H92.9423V9.872H89.0543V6.224ZM92.8223 23H89.1983V11.912H92.8223V23ZM99.1137 23.36C96.7617 23.36 94.9137 21.92 94.9137 18.752V11.912H98.6577V17.96C98.6577 19.568 99.4017 20.192 100.482 20.192C101.754 20.192 102.57 19.304 102.57 17.264V11.912H106.194V23H102.642V21.272H102.594C101.802 22.544 100.746 23.36 99.1137 23.36Z" fill="black"/>
<rect width="30" height="30" rx="4" fill="#F7F859"/>
<path d="M23.3572 20.0759L19.6947 24.2033C19.0995 24.874 18.0729 24.9353 17.4022 24.3401C16.7315 23.7449 16.6702 22.7183 17.2654 22.0476L20.1261 18.8232C20.3544 18.5659 20.3308 18.1716 20.0736 17.9433L14.2113 12.7412C13.5406 12.146 13.4793 11.1194 14.0745 10.4487C14.6696 9.77798 15.6963 9.71673 16.3669 10.3119L23.1329 16.3159C24.2288 17.2878 24.3298 18.98 23.3572 20.0759Z" fill="black"/>
<path d="M6.03655 9.3867L9.69913 5.25932C10.2943 4.58863 11.3209 4.52737 11.9916 5.12254C12.6623 5.71771 12.7236 6.74431 12.1284 7.41501L9.26769 10.6395C9.03944 10.8967 9.06297 11.2911 9.32019 11.5193L15.1825 16.7215C15.8532 17.3167 15.9145 18.3433 15.3193 19.014C14.7242 19.6847 13.6975 19.7459 13.0268 19.1507L6.2609 13.1467C5.16498 12.1749 5.06401 10.4827 6.03655 9.3867Z" fill="black"/>
</svg>
