<svg width="32" height="32" viewBox="0 0 32 32" fill="none" xmlns="http://www.w3.org/2000/svg">
<path d="M11.7383 4.99033C11.5397 4.99343 11.3505 5.07516 11.2121 5.21759C11.0737 5.36001 10.9974 5.55151 11 5.75009V16.1427C10.9601 16.1154 10.9709 16.1153 10.9297 16.088C10.1431 15.5675 9.10917 15.0001 7.94922 15.0001C6.82051 15.0001 5.95843 15.4499 5.50977 16.1075C5.0611 16.7651 5 17.4985 5 18.0821C5 18.2767 5.07564 18.4637 5.21094 18.6036L9.40039 22.9395C10.6723 24.2554 12.4238 25.0001 14.2539 25.0001H21C23.2003 25.0001 25 23.2004 25 21.0001V13.7501C25.0014 13.6507 24.983 13.552 24.946 13.4598C24.9089 13.3676 24.8539 13.2836 24.7841 13.2129C24.7143 13.1421 24.6312 13.0859 24.5395 13.0475C24.4478 13.0092 24.3494 12.9894 24.25 12.9894C24.1506 12.9894 24.0522 13.0092 23.9605 13.0475C23.8688 13.0859 23.7857 13.1421 23.7159 13.2129C23.6461 13.2836 23.5911 13.3676 23.554 13.4598C23.517 13.552 23.4986 13.6507 23.5 13.7501V21.0001C23.5 22.3898 22.3897 23.5001 21 23.5001H14.2539C12.83 23.5001 11.4686 22.9227 10.4785 21.8985L6.55469 17.838C6.58182 17.4987 6.61574 17.15 6.75 16.9532C6.92133 16.7021 7.15993 16.5001 7.94922 16.5001C8.56727 16.5001 9.43215 16.897 10.1016 17.3399C10.771 17.7829 11.2324 18.2208 11.2324 18.2208C11.3387 18.3221 11.4724 18.39 11.6169 18.416C11.7613 18.4421 11.9103 18.4251 12.0453 18.3673C12.1802 18.3095 12.2953 18.2134 12.3761 18.0908C12.4569 17.9682 12.5 17.8246 12.5 17.6778V5.75009C12.5013 5.64979 12.4825 5.55025 12.4446 5.45735C12.4068 5.36445 12.3507 5.28008 12.2797 5.20925C12.2087 5.13841 12.1242 5.08253 12.0312 5.04493C11.9382 5.00733 11.8386 4.98876 11.7383 4.99033ZM15.7383 10.9903C15.5397 10.9934 15.3505 11.0752 15.2121 11.2176C15.0737 11.36 14.9974 11.5515 15 11.7501V14.2501C14.9986 14.3495 15.017 14.4481 15.054 14.5404C15.0911 14.6326 15.1461 14.7165 15.2159 14.7873C15.2857 14.8581 15.3688 14.9143 15.4605 14.9527C15.5522 14.991 15.6506 15.0108 15.75 15.0108C15.8494 15.0108 15.9478 14.991 16.0395 14.9527C16.1312 14.9143 16.2143 14.8581 16.2841 14.7873C16.3539 14.7165 16.4089 14.6326 16.446 14.5404C16.483 14.4481 16.5014 14.3495 16.5 14.2501V11.7501C16.5013 11.6498 16.4825 11.5502 16.4446 11.4573C16.4068 11.3644 16.3507 11.2801 16.2797 11.2092C16.2087 11.1384 16.1242 11.0825 16.0312 11.0449C15.9382 11.0073 15.8386 10.9888 15.7383 10.9903ZM20.2383 11.9903C20.0397 11.9934 19.8505 12.0752 19.7121 12.2176C19.5737 12.36 19.4974 12.5515 19.5 12.7501V14.2501C19.4986 14.3495 19.517 14.4481 19.554 14.5404C19.5911 14.6326 19.6461 14.7165 19.7159 14.7873C19.7857 14.8581 19.8688 14.9143 19.9605 14.9527C20.0522 14.991 20.1506 15.0108 20.25 15.0108C20.3494 15.0108 20.4478 14.991 20.5395 14.9527C20.6312 14.9143 20.7143 14.8581 20.7841 14.7873C20.8539 14.7165 20.9089 14.6326 20.946 14.5404C20.983 14.4481 21.0014 14.3495 21 14.2501V12.7501C21.0013 12.6498 20.9825 12.5502 20.9446 12.4573C20.9068 12.3644 20.8507 12.2801 20.7797 12.2092C20.7087 12.1384 20.6242 12.0825 20.5312 12.0449C20.4382 12.0073 20.3386 11.9888 20.2383 11.9903Z" fill="black"/>
</svg>
