<svg width="32" height="32" viewBox="0 0 32 32" fill="none" xmlns="http://www.w3.org/2000/svg">
<g clip-path="url(#clip0_20_18)">
<path d="M15.4922 3.99225C15.4266 3.99327 15.3618 4.00722 15.3015 4.0333C15.2412 4.05937 15.1867 4.09706 15.141 4.14422C15.0953 4.19137 15.0593 4.24707 15.0351 4.30812C15.0109 4.36918 14.999 4.4344 15 4.50006V6.02545C10.1539 6.2785 6.27848 10.1539 6.02543 15.0001H4.50004C4.43379 14.9991 4.368 15.0114 4.30652 15.0361C4.24504 15.0608 4.18907 15.0975 4.14189 15.144C4.09471 15.1905 4.05724 15.2459 4.03166 15.3071C4.00609 15.3682 3.99292 15.4338 3.99292 15.5001C3.99292 15.5663 4.00609 15.6319 4.03166 15.6931C4.05724 15.7542 4.09471 15.8096 4.14189 15.8561C4.18907 15.9027 4.24504 15.9393 4.30652 15.9641C4.368 15.9888 4.43379 16.001 4.50004 16.0001H6.02543C6.27848 20.8462 10.1539 24.7216 15 24.9747V26.5001C14.9991 26.5663 15.0113 26.6321 15.0361 26.6936C15.0608 26.7551 15.0974 26.811 15.144 26.8582C15.1905 26.9054 15.2459 26.9429 15.307 26.9684C15.3682 26.994 15.4338 27.0072 15.5 27.0072C15.5663 27.0072 15.6319 26.994 15.693 26.9684C15.7542 26.9429 15.8096 26.9054 15.8561 26.8582C15.9026 26.811 15.9393 26.7551 15.964 26.6936C15.9887 26.6321 16.001 26.5663 16 26.5001V24.9747C20.8462 24.7216 24.7216 20.8462 24.9747 16.0001H26.5C26.5663 16.001 26.6321 15.9888 26.6936 15.9641C26.755 15.9393 26.811 15.9027 26.8582 15.8561C26.9054 15.8096 26.9428 15.7542 26.9684 15.6931C26.994 15.6319 27.0072 15.5663 27.0072 15.5001C27.0072 15.4338 26.994 15.3682 26.9684 15.3071C26.9428 15.2459 26.9054 15.1905 26.8582 15.144C26.811 15.0975 26.755 15.0608 26.6936 15.0361C26.6321 15.0114 26.5663 14.9991 26.5 15.0001H24.9747C24.7216 10.1539 20.8462 6.2785 16 6.02545V4.50006C16.0011 4.43309 15.9887 4.36658 15.9635 4.3045C15.9384 4.24241 15.901 4.18601 15.8536 4.13865C15.8063 4.09128 15.7499 4.05392 15.6878 4.02877C15.6257 4.00362 15.5592 3.9912 15.4922 3.99225ZM15 7.02545V10.0235C13.4469 10.1399 12.2136 10.7893 11.377 11.7305C10.5657 12.6433 10.1407 13.8091 10.043 15.0001H7.02543C7.27688 10.7128 10.7128 7.2769 15 7.02545ZM16 7.02545C20.2873 7.2769 23.7232 10.7128 23.9747 15.0001H20.9747C20.7354 12.3675 18.6326 10.2647 16 10.0255V7.02545ZM15.4375 11.002C15.4738 11.0067 15.5105 11.0073 15.5469 11.004C17.9991 11.0294 19.9676 12.9993 19.9942 15.4512C19.9918 15.4831 19.9924 15.5152 19.9961 15.5469C19.9707 17.9985 18.0018 19.9665 15.5508 19.9942C15.5313 19.9924 15.5118 19.9918 15.4922 19.9923C15.4733 19.9925 15.4544 19.9938 15.4356 19.9962C13.929 19.9802 12.854 19.4279 12.1231 18.6055C11.3929 17.7841 11.0156 16.6737 11.0039 15.5528C11.0079 15.5164 11.0079 15.4798 11.0039 15.4434C11.0165 14.3238 11.3938 13.2151 12.1231 12.3946C12.8544 11.5719 13.9299 11.0175 15.4375 11.002ZM15.5 15.0001C15.3674 15.0001 15.2403 15.0527 15.1465 15.1465C15.0527 15.2403 15 15.3675 15 15.5001C15 15.6327 15.0527 15.7598 15.1465 15.8536C15.2403 15.9474 15.3674 16.0001 15.5 16.0001C15.6326 16.0001 15.7598 15.9474 15.8536 15.8536C15.9474 15.7598 16 15.6327 16 15.5001C16 15.3675 15.9474 15.2403 15.8536 15.1465C15.7598 15.0527 15.6326 15.0001 15.5 15.0001ZM7.02543 16.0001H10.043C10.1407 17.191 10.5657 18.3568 11.377 19.2696C12.2136 20.2108 13.4469 20.8602 15 20.9766V23.9747C10.7128 23.7232 7.27688 20.2873 7.02543 16.0001ZM20.9747 16.0001H23.9747C23.7232 20.2873 20.2873 23.7232 16 23.9747V20.9747C18.6326 20.7354 20.7354 18.6326 20.9747 16.0001Z" fill="black"/>
</g>
<defs>
<clipPath id="clip0_20_18">
<rect width="24" height="24" fill="white" transform="translate(4 4)"/>
</clipPath>
</defs>
</svg>
