<svg width="32" height="32" viewBox="0 0 32 32" fill="none" xmlns="http://www.w3.org/2000/svg">
<path d="M15.2929 21C15.2929 21.3905 15.6095 21.7071 16 21.7071C16.3905 21.7071 16.7071 21.3905 16.7071 21H16H15.2929ZM16.5 5.5C16.2239 5.22386 15.7761 5.22386 15.5 5.5L11 10C10.7239 10.2761 10.7239 10.7239 11 11C11.2761 11.2761 11.7239 11.2761 12 11L16 7L20 11C20.2761 11.2761 20.7239 11.2761 21 11C21.2761 10.7239 21.2761 10.2761 21 10L16.5 5.5ZM16 21H16.7071V6H16H15.2929V21H16Z" fill="black"/>
<path d="M21 14H25.5V26H7L7 14H12" stroke="black" stroke-width="1.2" stroke-linecap="round"/>
</svg>
