<svg width="32" height="32" viewBox="0 0 32 32" fill="none" xmlns="http://www.w3.org/2000/svg">
<path d="M13.4999 6C13.3223 5.99992 13.1504 6.06289 13.0148 6.17771C12.8793 6.29252 12.7889 6.45172 12.7597 6.62695L12.3652 9H11.9999H7.62103C7.54148 8.98709 7.46036 8.98709 7.3808 9H6.74994C6.65056 8.99859 6.55188 9.01696 6.45966 9.05402C6.36743 9.09108 6.28349 9.1461 6.21271 9.21588C6.14194 9.28566 6.08573 9.36882 6.04737 9.46051C6.00901 9.5522 5.98926 9.65061 5.98926 9.75C5.98926 9.84939 6.00901 9.9478 6.04737 10.0395C6.08573 10.1312 6.14194 10.2143 6.21271 10.2841C6.28349 10.3539 6.36743 10.4089 6.45966 10.446C6.55188 10.483 6.65056 10.5014 6.74994 10.5H6.79681L7.66596 23.8887C7.73849 25.0676 8.73002 26 9.91205 26H22.0878C23.2692 26 24.2614 25.0682 24.3339 23.8887V23.8867L25.2031 10.5H25.2499C25.3493 10.5014 25.448 10.483 25.5402 10.446C25.6324 10.4089 25.7164 10.3539 25.7872 10.2841C25.8579 10.2143 25.9141 10.1312 25.9525 10.0395C25.9909 9.9478 26.0106 9.84939 26.0106 9.75C26.0106 9.65061 25.9909 9.5522 25.9525 9.46051C25.9141 9.36882 25.8579 9.28566 25.7872 9.21588C25.7164 9.1461 25.6324 9.09108 25.5402 9.05402C25.448 9.01696 25.3493 8.99859 25.2499 9H24.623C24.5422 8.98667 24.4597 8.98667 24.3788 9H19.9999H19.6347L19.2402 6.62695C19.211 6.45172 19.1206 6.29252 18.985 6.17771C18.8495 6.06289 18.6776 5.99992 18.4999 6H13.4999ZM14.1347 7.5H17.8652L18.1152 9H13.8847L14.1347 7.5ZM8.30072 10.5H11.9999H12.9999H18.996H19.9999H23.6992L22.8359 23.793C22.8359 23.7936 22.8359 23.7943 22.8359 23.7949C22.8114 24.1985 22.4918 24.5 22.0878 24.5H9.91205C9.50871 24.5 9.18841 24.1971 9.164 23.7949C9.164 23.7943 9.164 23.7936 9.164 23.793L8.30072 10.5ZM11.7636 12.9902C11.6588 12.9883 11.5548 13.0083 11.4582 13.049C11.3617 13.0897 11.2747 13.1501 11.2029 13.2265C11.1312 13.3029 11.0762 13.3934 11.0416 13.4923C11.0069 13.5913 10.9934 13.6963 11.0019 13.8008L11.5019 21.3008C11.5058 21.401 11.5298 21.4994 11.5725 21.5902C11.6151 21.681 11.6755 21.7623 11.7501 21.8294C11.8247 21.8964 11.912 21.9478 12.0069 21.9805C12.1017 22.0132 12.2021 22.0265 12.3022 22.0197C12.4023 22.0129 12.5 21.9862 12.5895 21.9409C12.679 21.8957 12.7586 21.833 12.8235 21.7565C12.8883 21.68 12.9372 21.5913 12.9672 21.4955C12.9972 21.3998 13.0076 21.2991 12.998 21.1992L12.498 13.6992C12.4877 13.5102 12.4062 13.332 12.27 13.2005C12.1338 13.069 11.9529 12.9939 11.7636 12.9902ZM15.9882 12.9902C15.7897 12.9933 15.6004 13.0751 15.462 13.2175C15.3236 13.3599 15.2473 13.5514 15.2499 13.75V21.25C15.2485 21.3494 15.2669 21.4481 15.304 21.5403C15.341 21.6325 15.396 21.7164 15.4658 21.7872C15.5356 21.858 15.6188 21.9142 15.7105 21.9526C15.8021 21.9909 15.9005 22.0107 15.9999 22.0107C16.0993 22.0107 16.1977 21.9909 16.2894 21.9526C16.3811 21.9142 16.4643 21.858 16.5341 21.7872C16.6038 21.7164 16.6589 21.6325 16.6959 21.5403C16.733 21.4481 16.7513 21.3494 16.7499 21.25V13.75C16.7512 13.6497 16.7324 13.5502 16.6946 13.4573C16.6567 13.3644 16.6007 13.28 16.5296 13.2092C16.4586 13.1383 16.3741 13.0824 16.2811 13.0448C16.1881 13.0072 16.0885 12.9887 15.9882 12.9902ZM20.2148 12.9902C20.0293 12.9992 19.8537 13.0766 19.722 13.2076C19.5903 13.3386 19.5119 13.5138 19.5019 13.6992L19.0019 21.1992C18.9922 21.2991 19.0027 21.3998 19.0327 21.4955C19.0627 21.5913 19.1115 21.68 19.1764 21.7565C19.2413 21.833 19.3208 21.8957 19.4104 21.9409C19.4999 21.9861 19.5976 22.0129 19.6977 22.0197C19.7978 22.0265 19.8982 22.0132 19.993 21.9805C20.0878 21.9478 20.1751 21.8964 20.2498 21.8294C20.3244 21.7623 20.3848 21.681 20.4274 21.5902C20.4701 21.4994 20.4941 21.401 20.498 21.3008L20.998 13.8008C21.0067 13.6945 20.9927 13.5875 20.9568 13.4871C20.9209 13.3866 20.864 13.295 20.7898 13.2183C20.7157 13.1415 20.6261 13.0815 20.5269 13.0422C20.4277 13.0029 20.3213 12.9852 20.2148 12.9902Z" fill="black"/>
</svg>
