<svg width="32" height="32" viewBox="0 0 32 32" fill="none" xmlns="http://www.w3.org/2000/svg">
<g clip-path="url(#clip0_20_141)">
<path d="M13.75 5C12.7922 5 12 5.79221 12 6.75V9H8.75C7.7922 9 7 9.79221 7 10.75V24.25C7 25.2078 7.7922 26 8.75 26H19.25C20.2078 26 21 25.2078 21 24.25V22H24.25C25.2078 22 26 21.2078 26 20.25V10.25C26.0002 10.1514 25.981 10.0538 25.9435 9.9626C25.906 9.87145 25.8508 9.78858 25.7812 9.71875L21.2812 5.21875C21.2114 5.14917 21.1286 5.09403 21.0374 5.0565C20.9462 5.01896 20.8486 4.99976 20.75 5H13.75ZM13.75 6.5H20V10.25C20 10.4489 20.079 10.6397 20.2197 10.7803C20.3603 10.921 20.5511 11 20.75 11H24.5V20.25C24.5 20.3962 24.3962 20.5 24.25 20.5H13.75C13.6038 20.5 13.5 20.3962 13.5 20.25V6.75C13.5 6.6038 13.6038 6.5 13.75 6.5ZM21.5 7.56055L23.4395 9.5H21.5V7.56055ZM8.75 10.5H12V20.25C12 21.2078 12.7922 22 13.75 22H19.5V24.25C19.5 24.3962 19.3962 24.5 19.25 24.5H8.75C8.6038 24.5 8.5 24.3962 8.5 24.25V10.75C8.5 10.6038 8.6038 10.5 8.75 10.5Z" fill="black"/>
</g>
<defs>
<clipPath id="clip0_20_141">
<rect width="32" height="32" fill="white"/>
</clipPath>
</defs>
</svg>
