<svg width="32" height="32" viewBox="0 0 32 32" fill="none" xmlns="http://www.w3.org/2000/svg">
<path d="M21.9773 6.00035C21.8751 5.99722 21.7734 6.01502 21.6783 6.05263C21.5833 6.09025 21.4969 6.1469 21.4246 6.2191L7.14526 20.4984C7.04503 20.5987 6.97528 20.7253 6.94409 20.8636L6.01831 24.973C5.99052 25.0965 5.99442 25.2249 6.02963 25.3465C6.06484 25.468 6.13022 25.5786 6.21969 25.6681C6.30916 25.7576 6.41982 25.823 6.54135 25.8582C6.66288 25.8934 6.79135 25.8973 6.91479 25.8695L11.0242 24.9437C11.1625 24.9125 11.2891 24.8428 11.3894 24.7425L25.6687 10.4632C25.7498 10.382 25.8112 10.2832 25.8481 10.1745C25.885 10.0658 25.8964 9.95011 25.8816 9.83629C25.8816 9.83629 25.7078 8.43397 24.5808 7.30699C23.4538 6.18001 22.0515 6.00621 22.0515 6.00621C22.0269 6.00303 22.0021 6.00107 21.9773 6.00035ZM22.1277 7.63707C22.3526 7.68265 22.8946 7.74184 23.5203 8.36754C24.146 8.99323 24.2051 9.53519 24.2507 9.76012L22.5007 11.5101L20.3777 9.38707L22.1277 7.63707ZM19.3171 10.4476L21.4402 12.5707L10.4832 23.5277L7.74292 24.1468L8.36011 21.4046L19.3171 10.4476Z" fill="black"/>
</svg>
