<svg width="32" height="32" viewBox="0 0 32 32" fill="none" xmlns="http://www.w3.org/2000/svg">
<path d="M15.9931 6C15.7191 6 15.4439 6.01487 15.1689 6.04688C12.1209 6.40488 9.56857 8.85981 9.09857 11.8828C8.74857 14.1278 9.45784 16.3288 11.0458 17.9258C11.6678 18.5508 12.0107 19.333 12.0107 20.127V21.998C12.0107 24.204 13.8047 25.998 16.0107 25.998C18.2167 25.998 20.0107 24.204 20.0107 21.998V20.1211C20.0107 19.3241 20.3344 18.552 20.8994 18.002C22.2604 16.673 23.0107 14.896 23.0107 12.998C23.0107 11.001 22.1541 9.09558 20.6611 7.76758C19.3751 6.62358 17.7061 6 15.9931 6ZM6.00287 7.24023C5.85332 7.23987 5.70708 7.28423 5.58292 7.3676C5.45877 7.45097 5.36237 7.56955 5.3061 7.70811C5.24984 7.84667 5.23628 7.99889 5.26716 8.14522C5.29805 8.29154 5.37197 8.42529 5.47943 8.5293L6.47943 9.5293C6.54919 9.59907 6.63202 9.65443 6.72317 9.69219C6.81433 9.72996 6.91203 9.7494 7.0107 9.74941C7.10937 9.74941 7.20707 9.72998 7.29823 9.69223C7.38939 9.65447 7.47222 9.59913 7.54199 9.52936C7.61176 9.45959 7.66711 9.37676 7.70486 9.2856C7.74262 9.19444 7.76205 9.09673 7.76204 8.99806C7.76204 8.8994 7.7426 8.80169 7.70483 8.71054C7.66706 8.61938 7.61171 8.53656 7.54193 8.4668L6.54193 7.4668C6.47183 7.39486 6.38799 7.33774 6.29539 7.29882C6.20279 7.2599 6.10331 7.23998 6.00287 7.24023ZM25.9951 7.24023C25.8003 7.24591 25.6154 7.32717 25.4794 7.4668L24.4794 8.4668C24.4097 8.53656 24.3543 8.61938 24.3165 8.71054C24.2788 8.80169 24.2593 8.8994 24.2593 8.99806C24.2593 9.09673 24.2787 9.19444 24.3165 9.2856C24.3543 9.37676 24.4096 9.45959 24.4794 9.52936C24.5491 9.59913 24.632 9.65447 24.7231 9.69223C24.8143 9.72998 24.912 9.74941 25.0107 9.74941C25.1093 9.7494 25.207 9.72996 25.2982 9.69219C25.3893 9.65443 25.4722 9.59907 25.5419 9.5293L26.5419 8.5293C26.651 8.42393 26.7255 8.28799 26.7558 8.13939C26.786 7.99079 26.7705 7.83652 26.7113 7.69693C26.652 7.55733 26.5519 7.43896 26.424 7.35743C26.2962 7.2759 26.1466 7.23504 25.9951 7.24023ZM15.9931 7.5C17.3541 7.5 18.659 7.99172 19.665 8.88672C20.838 9.93072 21.5107 11.43 21.5107 12.998C21.5107 14.488 20.9215 15.8837 19.8525 16.9277C19.1493 17.6128 18.7116 18.5274 18.5732 19.498H13.4462C13.3031 18.5331 12.8528 17.615 12.1103 16.8691C10.8623 15.6141 10.304 13.8803 10.579 12.1113C10.947 9.74133 12.9517 7.81616 15.3447 7.53516C15.5587 7.51116 15.7771 7.5 15.9931 7.5ZM4.76068 13.498C4.6613 13.4966 4.56263 13.515 4.4704 13.5521C4.37817 13.5891 4.29423 13.6441 4.22346 13.7139C4.15268 13.7837 4.09648 13.8669 4.05812 13.9586C4.01975 14.0503 4 14.1487 4 14.248C4 14.3474 4.01975 14.4458 4.05812 14.5375C4.09648 14.6292 4.15268 14.7124 4.22346 14.7822C4.29423 14.8519 4.37817 14.907 4.4704 14.944C4.56263 14.9811 4.6613 14.9995 4.76068 14.998H6.26068C6.36007 14.9995 6.45874 14.9811 6.55096 14.944C6.64319 14.907 6.72713 14.8519 6.79791 14.7822C6.86869 14.7124 6.92489 14.6292 6.96325 14.5375C7.00161 14.4458 7.02136 14.3474 7.02136 14.248C7.02136 14.1487 7.00161 14.0503 6.96325 13.9586C6.92489 13.8669 6.86869 13.7837 6.79791 13.7139C6.72713 13.6441 6.64319 13.5891 6.55096 13.5521C6.45874 13.515 6.36007 13.4966 6.26068 13.498H4.76068ZM25.7607 13.498C25.6613 13.4966 25.5626 13.515 25.4704 13.5521C25.3782 13.5891 25.2942 13.6441 25.2235 13.7139C25.1527 13.7837 25.0965 13.8669 25.0581 13.9586C25.0198 14.0503 25 14.1487 25 14.248C25 14.3474 25.0198 14.4458 25.0581 14.5375C25.0965 14.6292 25.1527 14.7124 25.2235 14.7822C25.2942 14.8519 25.3782 14.907 25.4704 14.944C25.5626 14.9811 25.6613 14.9995 25.7607 14.998H27.2607C27.3601 14.9995 27.4587 14.9811 27.551 14.944C27.6432 14.907 27.7271 14.8519 27.7979 14.7822C27.8687 14.7124 27.9249 14.6292 27.9632 14.5375C28.0016 14.4458 28.0214 14.3474 28.0214 14.248C28.0214 14.1487 28.0016 14.0503 27.9632 13.9586C27.9249 13.8669 27.8687 13.7837 27.7979 13.7139C27.7271 13.6441 27.6432 13.5891 27.551 13.5521C27.4587 13.515 27.3601 13.4966 27.2607 13.498H25.7607ZM6.99506 18.2402C6.80028 18.2459 6.61535 18.3272 6.47943 18.4668L5.47943 19.4668C5.40965 19.5366 5.3543 19.6194 5.31653 19.7105C5.27877 19.8017 5.25933 19.8994 5.25932 19.9981C5.25931 20.0967 5.27874 20.1944 5.3165 20.2856C5.35426 20.3768 5.4096 20.4596 5.47937 20.5294C5.54914 20.5991 5.63197 20.6545 5.72313 20.6922C5.81429 20.73 5.91199 20.7494 6.01066 20.7494C6.10933 20.7494 6.20704 20.73 6.29819 20.6922C6.38935 20.6544 6.47217 20.5991 6.54193 20.5293L7.54193 19.5293C7.65099 19.4239 7.72554 19.288 7.75577 19.1394C7.786 18.9908 7.77048 18.8365 7.71126 18.6969C7.65203 18.5573 7.55189 18.439 7.42403 18.3574C7.29617 18.2759 7.14661 18.235 6.99506 18.2402ZM25.0029 18.2402C24.8533 18.2399 24.7071 18.2842 24.5829 18.3676C24.4588 18.451 24.3624 18.5695 24.3061 18.7081C24.2498 18.8467 24.2363 18.9989 24.2672 19.1452C24.298 19.2915 24.372 19.4253 24.4794 19.5293L25.4794 20.5293C25.5492 20.5991 25.632 20.6544 25.7232 20.6922C25.8143 20.73 25.912 20.7494 26.0107 20.7494C26.1094 20.7494 26.2071 20.73 26.2982 20.6922C26.3894 20.6545 26.4722 20.5991 26.542 20.5294C26.6118 20.4596 26.6671 20.3768 26.7049 20.2856C26.7426 20.1944 26.762 20.0967 26.762 19.9981C26.762 19.8994 26.7426 19.8017 26.7048 19.7105C26.6671 19.6194 26.6117 19.5366 26.5419 19.4668L25.5419 18.4668C25.4718 18.3949 25.388 18.3377 25.2954 18.2988C25.2028 18.2599 25.1033 18.24 25.0029 18.2402ZM13.5107 20.998H18.5107V21.998C18.5107 23.376 17.3887 24.498 16.0107 24.498C14.6327 24.498 13.5107 23.376 13.5107 21.998V20.998Z" fill="black"/>
</svg>
