<svg width="32" height="32" viewBox="0 0 32 32" fill="none" xmlns="http://www.w3.org/2000/svg">
<g clip-path="url(#clip0_20_119)">
<path d="M21.914 4.9978C20.9492 4.99814 19.9854 5.36586 19.2538 6.09741L16.0839 9.26147H16.0819C14.619 10.7244 14.619 13.1208 16.0819 14.5837L16.2128 14.7146L14.705 16.2224L14.58 16.0974C13.117 14.6345 10.7207 14.6345 9.25772 16.0974L6.08975 19.2634C4.62633 20.7268 4.62633 23.1242 6.08975 24.5876L7.39834 25.8962C8.86115 27.3591 11.2555 27.3594 12.7187 25.8962L15.8866 22.7283C17.3499 21.265 17.3499 18.8693 15.8866 17.406L15.7636 17.283L17.2733 15.7751L17.3905 15.8923C18.8539 17.3557 21.2512 17.3565 22.7147 15.8943L25.8866 12.7263C27.3498 11.2644 27.3497 8.86912 25.8866 7.40601L24.5761 6.09351C23.8444 5.36303 22.8787 4.99747 21.914 4.9978ZM21.9159 6.48999C22.4942 6.48982 23.0712 6.71244 23.5155 7.15601L24.8261 8.46655C25.715 9.35544 25.7149 10.7777 24.8261 11.6658L21.6542 14.8318C20.7657 15.7195 19.3397 15.7204 18.4511 14.8318L18.3339 14.7146L20.7733 12.2791C20.8454 12.2101 20.903 12.1274 20.9428 12.0359C20.9825 11.9444 21.0036 11.8458 21.0048 11.7461C21.006 11.6463 20.9873 11.5473 20.9497 11.4548C20.9122 11.3624 20.8566 11.2784 20.7862 11.2077C20.7157 11.137 20.6319 11.0811 20.5396 11.0432C20.4473 11.0053 20.3484 10.9862 20.2486 10.987C20.1488 10.9879 20.0502 11.0086 19.9585 11.048C19.8669 11.0874 19.784 11.1447 19.7147 11.2166L17.2753 13.6541L17.1444 13.5232H17.1425C16.2534 12.6342 16.2534 11.2111 17.1425 10.322L20.3144 7.15796C20.7588 6.71352 21.3377 6.49016 21.9159 6.48999ZM11.9179 16.49C12.4957 16.49 13.0749 16.7134 13.5194 17.158L13.6444 17.281L11.2108 19.7126C11.1387 19.7816 11.0811 19.8643 11.0414 19.9558C11.0016 20.0473 10.9805 20.1459 10.9794 20.2456C10.9782 20.3454 10.9969 20.4444 11.0344 20.5369C11.072 20.6293 11.1276 20.7133 11.198 20.784C11.2684 20.8547 11.3523 20.9106 11.4446 20.9485C11.5369 20.9864 11.6358 21.0055 11.7356 21.0047C11.8354 21.0038 11.934 20.9831 12.0256 20.9437C12.1173 20.9043 12.2002 20.847 12.2694 20.7751L14.703 18.3435L14.8261 18.4666C15.7148 19.3553 15.7148 20.779 14.8261 21.6677L11.6581 24.8357C10.7692 25.7246 9.34808 25.7249 8.45889 24.8357L7.15029 23.5271C6.26171 22.6385 6.26171 21.2126 7.15029 20.324L10.3183 17.158C10.7628 16.7134 11.34 16.49 11.9179 16.49Z" fill="black"/>
</g>
<defs>
<clipPath id="clip0_20_119">
<rect width="32" height="32" fill="white"/>
</clipPath>
</defs>
</svg>
