<svg width="32" height="32" viewBox="0 0 32 32" fill="none" xmlns="http://www.w3.org/2000/svg">
<g clip-path="url(#clip0_20_114)">
<path d="M24.2039 11.0526C23.9679 10.7146 23.5009 10.6326 23.1589 10.8696C22.8199 11.1076 22.7389 11.5756 22.9769 11.9146C23.9839 13.3476 24.5159 15.0336 24.5159 16.7906C24.5159 21.4686 20.7099 25.2746 16.0319 25.2746C11.3539 25.2746 7.54885 21.4686 7.54885 16.7906C7.54885 12.1126 11.3549 8.30659 16.0319 8.30659C16.4649 8.30659 16.8979 8.33959 17.3209 8.40359C17.4179 8.41859 17.5149 8.41259 17.6059 8.39059L15.7659 9.96759C15.4519 10.2376 15.4149 10.7106 15.6849 11.0246C15.8329 11.1976 16.0429 11.2866 16.2539 11.2866C16.4269 11.2866 16.6009 11.2276 16.7419 11.1056L19.5399 8.70859C19.6939 8.57659 19.7879 8.38759 19.8009 8.18559C19.8129 7.98259 19.7419 7.78359 19.6059 7.63359L16.8039 4.56759C16.5249 4.26159 16.0499 4.24159 15.7439 4.51959C15.4379 4.79859 15.4169 5.27359 15.6959 5.57959L16.8499 6.84259C16.5779 6.82059 16.3039 6.80759 16.0309 6.80759C10.5259 6.80759 6.04785 11.2866 6.04785 16.7916C6.04785 22.2966 10.5269 26.7746 16.0319 26.7746C21.5369 26.7746 26.0159 22.2956 26.0159 16.7906C26.0159 14.7226 25.3889 12.7386 24.2039 11.0526Z" fill="black"/>
</g>
<defs>
<clipPath id="clip0_20_114">
<rect width="32" height="32" fill="white"/>
</clipPath>
</defs>
</svg>
