<svg width="32" height="32" viewBox="0 0 32 32" fill="none" xmlns="http://www.w3.org/2000/svg">
<g clip-path="url(#clip0_21_147)">
<path d="M10.25 6C9.0162 6 8 7.0162 8 8.25V23.75C8 24.9838 9.0162 26 10.25 26H21.75C22.9838 26 24 24.9838 24 23.75V22.75C24.0014 22.6506 23.983 22.5519 23.946 22.4597C23.9089 22.3675 23.8539 22.2836 23.7841 22.2128C23.7143 22.142 23.6312 22.0858 23.5395 22.0474C23.4478 22.0091 23.3494 21.9893 23.25 21.9893C23.1506 21.9893 23.0522 22.0091 22.9605 22.0474C22.8688 22.0858 22.7857 22.142 22.7159 22.2128C22.6461 22.2836 22.5911 22.3675 22.554 22.4597C22.517 22.5519 22.4986 22.6506 22.5 22.75V23.75C22.5 24.1722 22.1722 24.5 21.75 24.5H10.25C9.8278 24.5 9.5 24.1722 9.5 23.75V8.25C9.5 7.8278 9.8278 7.5 10.25 7.5H21.75C22.1722 7.5 22.5 7.8278 22.5 8.25V9.25C22.4986 9.34938 22.517 9.44806 22.554 9.54028C22.5911 9.63251 22.6461 9.71645 22.7159 9.78723C22.7857 9.858 22.8688 9.91421 22.9605 9.95257C23.0522 9.99093 23.1506 10.0107 23.25 10.0107C23.3494 10.0107 23.4478 9.99093 23.5395 9.95257C23.6312 9.91421 23.7143 9.858 23.7841 9.78723C23.8539 9.71645 23.9089 9.63251 23.946 9.54028C23.983 9.44806 24.0014 9.34938 24 9.25V8.25C24 7.0162 22.9838 6 21.75 6H10.25ZM17.7344 12.2422C17.5396 12.2479 17.3547 12.3291 17.2188 12.4688L14.2188 15.4688C14.1488 15.5384 14.0934 15.6212 14.0555 15.7124C14.0177 15.8036 13.9982 15.9013 13.9982 16C13.9982 16.0987 14.0177 16.1964 14.0555 16.2876C14.0934 16.3788 14.1488 16.4616 14.2188 16.5312L17.2188 19.5312C17.2885 19.601 17.3713 19.6564 17.4625 19.6941C17.5536 19.7319 17.6513 19.7514 17.75 19.7514C17.8487 19.7514 17.9464 19.7319 18.0376 19.6942C18.1287 19.6564 18.2115 19.6011 18.2813 19.5313C18.3511 19.4615 18.4064 19.3787 18.4442 19.2876C18.4819 19.1964 18.5014 19.0987 18.5014 19C18.5014 18.9013 18.4819 18.8036 18.4441 18.7125C18.4064 18.6213 18.351 18.5385 18.2812 18.4688L16.5625 16.75H26.25C26.3494 16.7514 26.4481 16.733 26.5403 16.696C26.6325 16.6589 26.7164 16.6039 26.7872 16.5341C26.858 16.4643 26.9142 16.3812 26.9526 16.2895C26.9909 16.1978 27.0107 16.0994 27.0107 16C27.0107 15.9006 26.9909 15.8022 26.9526 15.7105C26.9142 15.6188 26.858 15.5357 26.7872 15.4659C26.7164 15.3961 26.6325 15.3411 26.5403 15.304C26.4481 15.267 26.3494 15.2486 26.25 15.25H16.5625L18.2812 13.5312C18.3903 13.4259 18.4649 13.2899 18.4951 13.1413C18.5253 12.9927 18.5098 12.8385 18.4506 12.6989C18.3914 12.5593 18.2912 12.4409 18.1634 12.3594C18.0355 12.2779 17.8859 12.237 17.7344 12.2422Z" fill="black"/>
</g>
<defs>
<clipPath id="clip0_21_147">
<rect width="32" height="32" fill="white"/>
</clipPath>
</defs>
</svg>
